trial_1
version=1
nRows=12
nColumns=49
inDegrees=yes
endheader
time	/jointset/bb/crank_angle/value	/jointset/bb/crank_angle/speed	/jointset/spindle/pedal_angle_r/value	/jointset/spindle/pedal_angle_r/speed	/jointset/ground_pelvis/pelvis_tilt/value	/jointset/ground_pelvis/pelvis_tilt/speed	/jointset/ground_pelvis/pelvis_list/value	/jointset/ground_pelvis/pelvis_list/speed	/jointset/ground_pelvis/pelvis_rotation/value	/jointset/ground_pelvis/pelvis_rotation/speed	/jointset/ground_pelvis/pelvis_tx/value	/jointset/ground_pelvis/pelvis_tx/speed	/jointset/ground_pelvis/pelvis_ty/value	/jointset/ground_pelvis/pelvis_ty/speed	/jointset/ground_pelvis/pelvis_tz/value	/jointset/ground_pelvis/pelvis_tz/speed	/jointset/hip_r/hip_angle_r/value	/jointset/hip_r/hip_angle_r/speed	/jointset/hip_r/hip_adduction_r/value	/jointset/hip_r/hip_adduction_r/speed	/jointset/hip_r/hip_rotation_r/value	/jointset/hip_r/hip_rotation_r/speed	/jointset/knee_r/knee_angle_r/value	/jointset/knee_r/knee_angle_r/speed	/jointset/knee_r/tib_tx_r/value	/jointset/knee_r/tib_tx_r/speed	/jointset/knee_r/tib_ty_r/value	/jointset/knee_r/tib_ty_r/speed	/jointset/tib_pat_r/pat_angle_r/value	/jointset/tib_pat_r/pat_angle_r/speed	/jointset/tib_pat_r/pat_tx_r/value	/jointset/tib_pat_r/pat_tx_r/speed	/jointset/tib_pat_r/pat_ty_r/value	/jointset/tib_pat_r/pat_ty_r/speed	/jointset/ankle_r/ankle_angle_r/value	/jointset/ankle_r/ankle_angle_r/speed	/jointset/subtalar_r/subtalar_angle_r/value	/jointset/subtalar_r/subtalar_angle_r/speed	/jointset/mtp_r/mtp_angle_r/value	/jointset/mtp_r/mtp_angle_r/speed	/forceset/bifemlh_r/activation	/forceset/bifemlh_r/fiber_length	/forceset/bifemsh_r/activation	/forceset/bifemsh_r/fiber_length	/forceset/glut_max2_r/activation	/forceset/glut_max2_r/fiber_length	/forceset/vas_int_r/activation	/forceset/vas_int_r/fiber_length
      1.51251324	   -771.00632030	   -479.99997653	    775.32924506	    576.00378743	      0.00000000	     -0.00000000	     -0.00000000	     -0.00000000	     -0.00000000	      0.00000000	     -0.10000000	      0.00000000	     -0.05000000	      0.00000000	      0.00000000	      0.00000000	     78.82736341	   -122.97928862	      4.24196546	      1.98272218	     -2.17500806	     21.24380511	    -97.55379344	    257.20997669	      0.00259328	      0.04929606	     -0.48855413	      0.08888733	     17.59624102	     -1.07796164	      0.02976392	      0.10577850	     -0.02303861	      0.01351411	     23.60931724	    -39.73833465	     -0.00000000	     -0.00000000	      0.00000000	     -0.00000000	     -0.16929396	      0.13951435	     -0.16929396	      0.14902333	     -0.16929396	      0.15438031	     -0.16929396	      0.15233238
      1.51353062	   -771.49466233	   -479.99997653	    775.91510199	    575.69491892	      0.00000000	     -0.00000000	     -0.00000000	     -0.00000000	     -0.00000000	      0.00000000	     -0.10000000	      0.00000000	     -0.05000000	      0.00000000	      0.00000000	      0.00000000	     78.70149992	   -124.44575334	      4.24397920	      1.97592076	     -2.15338449	     21.26445160	    -97.29169754	    258.02549508	      0.00264325	      0.04893054	     -0.48846354	      0.08920032	     17.59514318	     -1.08014288	      0.02987157	      0.10584420	     -0.02302490	      0.01342769	     23.56906445	    -39.39146575	     -0.00000000	     -0.00000000	      0.00000000	     -0.00000000	     -0.16942495	      0.13948565	     -0.16942495	      0.14910422	     -0.16942495	      0.15432809	     -0.16942495	      0.15215609
      1.51454800	   -771.98300435	   -479.99997653	    776.50064628	    575.38920185	      0.00000000	     -0.00000000	     -0.00000000	     -0.00000000	     -0.00000000	      0.00000000	     -0.10000000	      0.00000000	     -0.05000000	      0.00000000	      0.00000000	      0.00000000	     78.57415013	   -125.90109112	      4.24598589	      1.96885960	     -2.13174025	     21.28446051	    -97.02877765	    258.82984099	      0.00269284	      0.04855909	     -0.48837263	      0.08950828	     17.59404336	     -1.08183607	      0.02997928	      0.10590358	     -0.02301129	      0.01333864	     23.52916623	    -39.04130893	     -0.00000000	     -0.00000000	      0.00000000	     -0.00000000	     -0.16955594	      0.13945651	     -0.16955594	      0.14918606	     -0.16955594	      0.15427506	     -0.16955594	      0.15206059
      1.51556538	   -772.47134637	   -479.99997653	    777.08588114	    575.08663096	      0.00000000	     -0.00000000	     -0.00000000	     -0.00000000	     -0.00000000	      0.00000000	     -0.10000000	      0.00000000	     -0.05000000	      0.00000000	      0.00000000	      0.00000000	     78.44532538	   -127.34527503	      4.24798527	      1.96154175	     -2.11007596	     21.30385039	    -96.76504509	    259.62305983	      0.00274205	      0.04818184	     -0.48828141	      0.08981120	     17.59294207	     -1.08303359	      0.03008705	      0.10595672	     -0.02299776	      0.01324696	     23.48962590	    -38.68794369	     -0.00000000	     -0.00000000	      0.00000000	     -0.00000000	     -0.16968693	      0.13942693	     -0.16968693	      0.14926885	     -0.16968693	      0.15422123	     -0.16968693	      0.15187967
      1.51658276	   -772.95968839	   -479.99997653	    777.67080977	    574.78720009	      0.00000000	     -0.00000000	     -0.00000000	     -0.00000000	     -0.00000000	      0.00000000	     -0.10000000	      0.00000000	     -0.05000000	      0.00000000	      0.00000000	      0.00000000	     78.31503704	   -128.77828020	      4.24997707	      1.95397029	     -2.08839226	     21.32263949	    -96.50051117	    260.40519657	      0.00279088	      0.04779888	     -0.48818989	      0.09010906	     17.59183982	     -1.08372800	      0.03019487	      0.10600370	     -0.02298433	      0.01315265	     23.45044667	    -38.33144791	     -0.00000000	     -0.00000000	      0.00000000	     -0.00000000	     -0.16981791	      0.13939692	     -0.16981791	      0.14935257	     -0.16981791	      0.15416661	     -0.16981791	      0.15178530
      1.51759882	   -773.44739724	   -479.99997653	    778.25467753	    574.49128433	      0.00000000	     -0.00000000	     -0.00000000	     -0.00000000	     -0.00000000	      0.00000000	     -0.10000000	     -0.00000000	     -0.05000000	      0.00000000	      0.00000000	      0.00000000	     78.18346822	   -130.19824750	      4.25195848	      1.94615861	     -2.06671789	     21.34082258	    -96.23553166	    261.17530302	      0.00283925	      0.04741083	     -0.48809818	      0.09040148	     17.59073855	     -1.08391203	      0.03030260	      0.10604453	     -0.02297102	      0.01305585	     23.41168178	    -37.97236601	     -0.00000000	     -0.00000000	      0.00000000	     -0.00000000	     -0.16994873	      0.13936652	     -0.16994873	      0.14943714	     -0.16994873	      0.15411125	     -0.16994873	      0.15160678
      1.51861488	   -773.93510608	   -479.99997653	    778.83824621	    574.19848550	      0.00000000	     -0.00000000	     -0.00000000	     -0.00000000	     -0.00000000	      0.00000000	     -0.10000000	     -0.00000000	     -0.05000000	      0.00000000	      0.00000000	      0.00000000	     78.05046233	   -131.60702133	      4.25393182	      1.93810015	     -2.04502533	     21.35844204	    -95.96977526	    261.93444424	      0.00288722	      0.04701730	     -0.48800618	      0.09068883	     17.58963735	     -1.08357973	      0.03041037	      0.10607936	     -0.02295780	      0.01295644	     23.37328326	    -37.61031215	     -0.00000000	     -0.00000000	      0.00000000	     -0.00000000	     -0.17007955	      0.13933569	     -0.17007955	      0.14952264	     -0.17007955	      0.15405510	     -0.17007955	      0.15150762
      1.51963094	   -774.42281492	   -479.99997653	    779.42151897	    573.90879484	      0.00000000	     -0.00000000	     -0.00000000	     -0.00000000	     -0.00000000	      0.00000000	     -0.10000000	     -0.00000000	     -0.05000000	      0.00000000	      0.00000000	      0.00000000	     77.91603073	   -133.00458263	      4.25589685	      1.92979803	     -2.02331515	     21.37551526	    -95.70325307	    262.68266351	      0.00293479	      0.04661839	     -0.48791390	      0.09097109	     17.58853676	     -1.08272402	      0.03051817	      0.10610825	     -0.02294469	      0.01285443	     23.33525409	    -37.24535913	     -0.00000000	     -0.00000000	      0.00000000	     -0.00000000	     -0.17021037	      0.13930445	     -0.17021037	      0.14960908	     -0.17021037	      0.15399814	     -0.17021037	      0.15132815
      1.52064700	   -774.91052377	   -479.99997653	    780.00449896	    573.62220280	      0.00000000	     -0.00000000	     -0.00000000	     -0.00000000	     -0.00000000	      0.00000000	     -0.10000000	     -0.00000000	     -0.05000000	      0.00000000	      0.00000000	      0.00000000	     77.78018482	   -134.39091418	      4.25785332	      1.92125534	     -2.00158789	     21.39205935	    -95.43597617	    263.42000350	      0.00298195	      0.04621421	     -0.48782132	      0.09124825	     17.58743731	     -1.08133799	      0.03062599	      0.10613128	     -0.02293168	      0.01274983	     23.29759717	    -36.87757820	     -0.00000000	     -0.00000000	      0.00000000	     -0.00000000	     -0.17034119	      0.13927279	     -0.17034119	      0.14969647	     -0.17034119	      0.15394039	     -0.17034119	      0.15122691
      1.52166306	   -775.39823261	   -479.99997653	    780.58718933	    573.33869901	      0.00000000	     -0.00000000	     -0.00000000	     -0.00000000	     -0.00000000	      0.00000000	     -0.10000000	     -0.00000000	     -0.05000000	      0.00000000	      0.00000000	      0.00000000	     77.64293603	   -135.76600047	      4.25980099	      1.91247522	     -1.97984409	     21.40809114	    -95.16795561	    264.14650632	      0.00302870	      0.04580485	     -0.48772847	      0.09152030	     17.58633953	     -1.07941482	      0.03073384	      0.10614850	     -0.02291878	      0.01264264	     23.26031535	    -36.50703903	     -0.00000000	     -0.00000000	      0.00000000	     -0.00000000	     -0.17047200	      0.13924072	     -0.17047200	      0.14978480	     -0.17047200	      0.15388183	     -0.17047200	      0.15104780
      1.52267912	   -775.88594145	   -479.99997653	    781.16959320	    573.05827230	      0.00000000	     -0.00000000	     -0.00000000	     -0.00000000	     -0.00000000	      0.00000000	     -0.10000000	     -0.00000000	     -0.05000000	      0.00000000	      0.00000000	      0.00000000	     77.50429579	   -137.12982765	      4.26173962	      1.90346080	     -1.95808425	     21.42362720	    -94.89920236	    264.86221344	      0.00307503	      0.04539042	     -0.48763534	      0.09178721	     17.58524399	     -1.07694784	      0.03084170	      0.10616001	     -0.02290599	      0.01253288	     23.22341139	    -36.13380974	     -0.00000000	     -0.00000000	      0.00000000	     -0.00000000	     -0.17060282	      0.13920824	     -0.17060282	      0.14987406	     -0.17060282	      0.15382247	     -0.17060282	      0.15094333
      1.52369518	   -776.37365030	   -479.99997653	    781.75171370	    572.78091078	      0.00000000	     -0.00000000	     -0.00000000	     -0.00000000	     -0.00000000	      0.00000000	     -0.10000000	     -0.00000000	     -0.05000000	      0.00000000	      0.00000000	      0.00000000	     77.36427555	   -138.48238350	      4.26366897	      1.89421521	     -1.93630886	     21.43868384	    -94.62972737	    265.56716566	      0.00312094	      0.04497102	     -0.48754195	      0.09204899	     17.58415123	     -1.07393053	      0.03094956	      0.10616586	     -0.02289332	      0.01242055	     23.18688799	    -35.75795694	     -0.00000000	     -0.00000000	      0.00000000	     -0.00000000	     -0.17073364	      0.13917535	     -0.17073364	      0.14996426	     -0.17073364	      0.15376231	     -0.17073364	      0.15076426
